<svg viewBox="0 0 60 60" xmlns="http://www.w3.org/2000/svg"><g stroke-linecap="round" stroke-linejoin="round"><path d="m24.656 4.6875c-11.018 0-19.937 8.9505-19.937 19.968-.0002 11.019 8.919 19.969 19.937 19.969 4.525 0 8.682-1.585 12.032-4.125 9.225 13.436 15.699 16.29 17.906 14.156 2.263-2.209-1.221-8.512-13.906-18.187 2.451-3.315 3.937-7.376 3.937-11.813 0-11.018-8.95-19.968-19.969-19.968z" fill="none" stroke="#fff" stroke-width="8.1225" transform="matrix(1.0003 0 0 1.0003 .01229 -.000199)"/><g fill="#fff" fill-rule="evenodd" stroke="#000"><path d="m31.914 32.619c12.338 21.099 21.052 25.471 23.73 22.881 2.772-2.705-1.893-11.073-22.11-24.534z" stroke-width="3.2246" transform="matrix(.96911 0 0 .96911 .68733 .89552)"/><path d="m45.373 24.518c0 11.373-9.23 20.604-20.604 20.604-11.373 0-20.604-9.231-20.604-20.604.0004-11.374 9.231-20.604 20.604-20.604 11.374-.0001 20.604 9.23 20.604 20.604z" stroke-width="3.2246" transform="matrix(.96911 0 0 .96911 .68733 .89552)"/><path d="m40.385 24.648c0 8.674-7.04 15.714-15.714 15.714s-15.713-7.04-15.713-15.714c-.0003-8.674 7.039-15.713 15.713-15.713 8.674-.0003 15.714 7.039 15.714 15.713z" stroke-width="2.4992" transform="matrix(1.0003 0 0 1.0003 .01229 -.000199)"/></g></g></svg>